<?xml version="1.0" encoding="UTF-8"?>
<svg version="1.1" xmlns="http://www.w3.org/2000/svg" width="500" height="120">
<path d="M0 0 C2.65791017 0.4739194 5.32078217 0.87938321 7.99151611 1.27453613 C13.99871079 2.16536218 19.99676578 3.10928955 25.99493408 4.05871582 C28.08538216 4.38713831 30.17587671 4.71526514 32.26641846 5.04309082 C37.32229767 5.83656823 42.37753652 6.63400961 47.43243408 7.43371582 C47.92743408 8.91871582 47.92743408 8.91871582 48.43243408 10.43371582 C41.99743408 12.90871582 41.99743408 12.90871582 35.43243408 15.43371582 C36.08001619 28.96250869 36.08001619 28.96250869 37.43243408 42.43371582 C35.78243408 42.43371582 34.13243408 42.43371582 32.43243408 42.43371582 C32.44403564 41.89746582 32.45563721 41.36121582 32.46759033 40.80871582 C32.56146686 32.65486867 31.99722467 24.56266609 31.43243408 16.43371582 C30.88973877 16.65027832 30.34704346 16.86684082 29.78790283 17.08996582 C29.07247314 17.36840332 28.35704346 17.64684082 27.61993408 17.93371582 C26.91223877 18.21215332 26.20454346 18.49059082 25.47540283 18.77746582 C23.43243408 19.43371582 23.43243408 19.43371582 20.43243408 19.43371582 C20.92743408 25.86871582 20.92743408 25.86871582 21.43243408 32.43371582 C19.94356689 32.32543457 19.94356689 32.32543457 18.42462158 32.21496582 C0.47826979 30.96232559 -16.04749998 31.15589167 -33.41131592 36.53137207 C-36.45748109 37.40224355 -39.43535854 37.97614938 -42.56756592 38.43371582 C-43.06256592 33.48371582 -43.06256592 33.48371582 -43.56756592 28.43371582 C-39.93756592 26.78371582 -36.30756592 25.13371582 -32.56756592 23.43371582 C-34.24334717 23.96609863 -35.91912842 24.49848145 -37.64569092 25.04699707 C-45.2080653 26.93759067 -51.73146762 25.94759522 -59.31756592 24.62121582 C-60.59889404 24.41689941 -61.88022217 24.21258301 -63.20037842 24.0020752 C-66.32689387 23.50043279 -69.44813772 22.97740771 -72.56756592 22.43371582 C-72.56756592 21.11371582 -72.56756592 19.79371582 -72.56756592 18.43371582 C-66.88061712 16.3847643 -61.19207776 14.34030862 -55.50213623 12.29968262 C-53.57397804 11.6075027 -51.64623032 10.91417809 -49.71893311 10.21960449 C-44.18546845 8.22588739 -38.64220053 6.26424906 -33.08758545 4.33026123 C-30.78216053 3.51006198 -28.5012986 2.64373641 -26.21990967 1.75939941 C-17.12738843 -1.6340546 -9.45185411 -1.72673952 0 0 Z M-24.56756592 20.43371582 C-20.56756592 21.43371582 -20.56756592 21.43371582 -20.56756592 21.43371582 Z " fill="#FBC50D" transform="translate(122.56756591796875,16.5662841796875)"/>
<path d="M0 0 C9 0 9 0 11.1640625 1.6171875 C11.64617187 2.36226562 12.12828125 3.10734375 12.625 3.875 C13.17800781 4.68582031 13.73101562 5.49664062 14.30078125 6.33203125 C14.86152344 7.21246094 15.42226563 8.09289063 16 9 C17.26287796 10.85959422 18.53353449 12.71393336 19.8125 14.5625 C20.37582031 15.40941406 20.93914062 16.25632812 21.51953125 17.12890625 C22.25236328 18.05509766 22.25236328 18.05509766 23 19 C23.66 19 24.32 19 25 19 C26.73050057 16.61351207 28.34982323 14.2288835 29.9375 11.75 C30.82061581 10.38997594 31.70470473 9.03058318 32.58984375 7.671875 C32.98034912 7.0644043 33.37085449 6.45693359 33.77319336 5.83105469 C35.10942052 3.83668579 36.55962376 1.92050166 38 0 C41.3 0 44.6 0 48 0 C48 14.19 48 28.38 48 43 C44.37 43 40.74 43 37 43 C36.67 35.74 36.34 28.48 36 21 C34.845 22.98 33.69 24.96 32.5 27 C28.74301583 32.54633867 28.74301583 32.54633867 26.00390625 34.21875 C23.35723037 34.60217186 22.33632832 34.35741981 20 33 C16.46691178 29.16376069 13.93884437 25.40826655 11 21 C10.67 28.26 10.34 35.52 10 43 C6.7 43 3.4 43 0 43 C0 28.81 0 14.62 0 0 Z " fill="#393C3D" transform="translate(255,41)"/>
<path d="M0 0 C4.32466397 3.88714933 7.19189829 7.1284762 8 13 C-2.18434604 13.63213182 -2.18434604 13.63213182 -5.5 11.0625 C-5.995 10.381875 -6.49 9.70125 -7 9 C-11.84283806 7.38572065 -16.19228677 7.25333584 -20.875 9.1875 C-23.91922502 11.78404487 -24.76989956 13.9742943 -25.21875 17.92578125 C-25.42234989 22.43042889 -24.96383552 25.40105687 -22 29 C-17.80392436 31.54090721 -13.78764576 31.71686675 -9 31 C-6.12970131 29.20606332 -4.50868362 28.01736724 -3 25 C-7.29 25 -11.58 25 -16 25 C-16 22.03 -16 19.06 -16 16 C-7.75 16 0.5 16 9 16 C9 23.82499222 8.60006958 29.85394831 3.3515625 35.8984375 C-2.93712161 41.52804555 -8.5242651 42.39999916 -16.83984375 42.25 C-22.69275222 41.78697634 -27.20223062 39.59462985 -31.64453125 35.640625 C-35.23889319 31.29010046 -37.17937744 25.5488601 -37.4375 19.9375 C-36.58087722 12.22789497 -34.51710856 6.51710856 -29 1 C-21.09460423 -4.5916214 -8.28878612 -5.37170259 0 0 Z " fill="#393C3D" transform="translate(427,43)"/>
<path d="M0 0 C4.16625 -0.0825 8.3325 -0.165 12.625 -0.25 C13.92775879 -0.28641602 15.23051758 -0.32283203 16.57275391 -0.36035156 C27.19129633 -0.46227905 27.19129633 -0.46227905 32 4 C34.8813118 7.27873411 35.91163481 9.85125253 36.25 14.25 C35.8215433 20.6768505 33.58956802 24.64749645 29 29 C29.5053125 29.84304687 30.010625 30.68609375 30.53125 31.5546875 C31.1809375 32.65039062 31.830625 33.74609375 32.5 34.875 C33.47453125 36.51082031 33.47453125 36.51082031 34.46875 38.1796875 C36 41 36 41 36 43 C31.81974099 43.67954949 28.14912049 43.95589949 24 43 C20.67245843 39.63934856 17 34.92904193 17 30 C15.02 30 13.04 30 11 30 C11 34.29 11 38.58 11 43 C7.37 43 3.74 43 0 43 C0 28.81 0 14.62 0 0 Z M11 9 C11 12.96 11 16.92 11 21 C17.41330248 21.54456376 17.41330248 21.54456376 23.0625 19 C23.701875 18.34 24.34125 17.68 25 17 C24.73343428 14.06556598 24.73343428 14.06556598 24 11 C20.68629 8.79086 19.6553979 8.77518447 15.8125 8.875 C14.224375 8.91625 12.63625 8.9575 11 9 Z " fill="#FBC40A" transform="translate(100,52)"/>
<path d="M0 0 C3.980625 -0.0825 7.96125 -0.165 12.0625 -0.25 C13.30394775 -0.28641602 14.54539551 -0.32283203 15.82446289 -0.36035156 C22.47209193 -0.42691911 26.63248214 -0.03309328 32 4 C35.68224044 7.91980434 35.43769495 12.27880732 35.29296875 17.40625 C34.75988898 22.12578286 32.42212985 24.90378728 29 28 C30.36591169 31.54243452 31.90931484 34.92627929 33.625 38.3125 C34.07101562 39.19550781 34.51703125 40.07851562 34.9765625 40.98828125 C35.31429687 41.65214844 35.65203125 42.31601563 36 43 C31.47439145 43.73498605 27.48708501 44.06535469 23 43 C20.49579412 40.06028005 19.08589639 37.26206906 17.5625 33.72265625 C16.7890625 32.37494141 16.7890625 32.37494141 16 31 C14.35 30.67 12.7 30.34 11 30 C11 34.29 11 38.58 11 43 C7.37 43 3.74 43 0 43 C0 28.81 0 14.62 0 0 Z M11 9 C11 12.96 11 16.92 11 21 C16.95008735 21.38810153 16.95008735 21.38810153 22.5625 19.875 C24.25060967 17.98864997 24.25060967 17.98864997 24.4375 15 C24.24507164 12.07023237 24.24507164 12.07023237 22.796875 10.32421875 C20.37084019 8.53633657 18.79122294 8.69644586 15.8125 8.8125 C14.224375 8.874375 12.63625 8.93625 11 9 Z " fill="#393D3E" transform="translate(352,41)"/>
<path d="M0 0 C1.51400391 0.01740234 1.51400391 0.01740234 3.05859375 0.03515625 C4.07050781 0.04417969 5.08242188 0.05320313 6.125 0.0625 C7.29869141 0.07990234 7.29869141 0.07990234 8.49609375 0.09765625 C20.39048093 29.03029266 20.39048093 29.03029266 25.49609375 43.09765625 C21.53609375 43.09765625 17.57609375 43.09765625 13.49609375 43.09765625 C11.49609375 39.09765625 11.49609375 39.09765625 11.49609375 36.09765625 C5.88609375 36.09765625 0.27609375 36.09765625 -5.50390625 36.09765625 C-6.16390625 38.40765625 -6.82390625 40.71765625 -7.50390625 43.09765625 C-11.46390625 43.09765625 -15.42390625 43.09765625 -19.50390625 43.09765625 C-16.02368596 32.812615 -12.21914317 22.68142971 -8.19140625 12.59765625 C-7.74684082 11.48140869 -7.30227539 10.36516113 -6.84423828 9.21508789 C-6.4264209 8.17602295 -6.00860352 7.13695801 -5.578125 6.06640625 C-5.20260498 5.13248047 -4.82708496 4.19855469 -4.44018555 3.23632812 C-3.07588704 0.11996439 -3.07588704 0.11996439 0 0 Z M2.49609375 14.09765625 C0.84609375 18.38765625 -0.80390625 22.67765625 -2.50390625 27.09765625 C0.79609375 27.09765625 4.09609375 27.09765625 7.49609375 27.09765625 C6.77600969 22.48911828 5.18313436 18.42528216 3.49609375 14.09765625 C3.16609375 14.09765625 2.83609375 14.09765625 2.49609375 14.09765625 Z " fill="#393D3E" transform="translate(324.50390625,40.90234375)"/>
<path d="M0 0 C3.3 0 6.6 0 10 0 C10.33 7.92 10.66 15.84 11 24 C15.9704933 23.60788325 15.9704933 23.60788325 17.58203125 20.71484375 C17.98808594 19.79832031 18.39414063 18.88179687 18.8125 17.9375 C19.23144531 17.01839844 19.65039062 16.09929687 20.08203125 15.15234375 C20.53642578 14.08693359 20.53642578 14.08693359 21 13 C24.3 13 27.6 13 31 13 C30.62421519 18.76203373 28.80218913 22.61140055 25.86328125 27.5703125 C24.7462927 29.98727106 24.7462927 29.98727106 25.66015625 32.4765625 C27.06771381 35.12753097 28.5437356 37.69858788 30.125 40.25 C33 44.89952153 33 44.89952153 33 46 C28.8757197 46.54056101 25.10106278 46.78886685 21 46 C18.16458033 43.386345 16.5908728 40.48357127 15 37 C14.67 36.34 14.34 35.68 14 35 C12.68 34.67 11.36 34.34 10 34 C10 37.96 10 41.92 10 46 C6.7 46 3.4 46 0 46 C0 30.82 0 15.64 0 0 Z " fill="#FAC412" transform="translate(216,49)"/>
<path d="M0 0 C3.53971326 3.87156137 4.25282426 7.55972841 4.1953125 12.70703125 C4.18886719 13.72861328 4.18242187 14.75019531 4.17578125 15.80273438 C4.15902344 16.85783203 4.14226562 17.91292969 4.125 19 C4.11597656 20.07443359 4.10695312 21.14886719 4.09765625 22.25585938 C4.07415306 24.89996854 4.04129575 27.54361872 4 30.1875 C-3.75 30.3125 -3.75 30.3125 -6 29.1875 C-6.66 29.496875 -7.32 29.80625 -8 30.125 C-13.26123943 31.98835563 -18.77621373 32.13379203 -23.9375 29.9375 C-27.4113635 26.98997946 -28.81542241 25.43339873 -29.5 20.8125 C-28.83715591 16.00688035 -27.43946309 14.54697558 -24 11.1875 C-20.53287889 10.03179296 -17.4585044 9.85914707 -13.8125 9.625 C-12.54019531 9.54121094 -11.26789063 9.45742187 -9.95703125 9.37109375 C-8.98121094 9.31050781 -8.00539062 9.24992187 -7 9.1875 C-7.66 8.1975 -8.32 7.2075 -9 6.1875 C-12 5.77083333 -12 5.77083333 -15 6.1875 C-15.66 6.8475 -16.32 7.5075 -17 8.1875 C-19.3828125 8.3828125 -19.3828125 8.3828125 -22.125 8.3125 C-23.49011719 8.28542969 -23.49011719 8.28542969 -24.8828125 8.2578125 C-25.58148438 8.23460938 -26.28015625 8.21140625 -27 8.1875 C-26.71076468 4.81308788 -26.02445309 3.21936311 -23.9375 0.5 C-16.59450789 -5.28065336 -7.80123715 -4.71324745 0 0 Z M-19 20.1875 C-18.01 21.6725 -18.01 21.6725 -17 23.1875 C-13.58500409 23.85457548 -13.58500409 23.85457548 -10 23.1875 C-7.50789479 20.88681981 -7.50789479 20.88681981 -6 18.1875 C-6 17.8575 -6 17.5275 -6 17.1875 C-7.60332791 17.10628076 -9.20784026 17.04820866 -10.8125 17 C-11.70582031 16.96519531 -12.59914062 16.93039063 -13.51953125 16.89453125 C-16.41647515 17.23668998 -17.22555028 17.94143573 -19 20.1875 Z " fill="#F5C520" transform="translate(168,64.8125)"/>
<path d="M0 0 C2.93355407 3.75861615 3.12213864 6.47829614 3.09765625 11.10546875 C3.09443359 12.17861328 3.09121094 13.25175781 3.08789062 14.35742188 C3.07532227 16.03674805 3.07532227 16.03674805 3.0625 17.75 C3.05798828 18.88115234 3.05347656 20.01230469 3.04882812 21.17773438 C3.03703498 23.97270927 3.0205765 26.7675782 3 29.5625 C-0.3 29.5625 -3.6 29.5625 -7 29.5625 C-7.02578125 28.16515625 -7.0515625 26.7678125 -7.078125 25.328125 C-7.13440784 23.48955217 -7.19175514 21.65101172 -7.25 19.8125 C-7.26417969 18.89210938 -7.27835938 17.97171875 -7.29296875 17.0234375 C-7.41704868 11.56431875 -7.41704868 11.56431875 -10.046875 6.921875 C-10.69140625 6.47328125 -11.3359375 6.0246875 -12 5.5625 C-15.77485386 6.6293146 -15.77485386 6.6293146 -18.125 9.59375 C-19.28447301 13.52767628 -19.46077288 17.29327189 -19.625 21.375 C-19.68300781 22.55739258 -19.68300781 22.55739258 -19.7421875 23.76367188 C-19.83588844 25.6962538 -19.91900779 27.62934376 -20 29.5625 C-23.3 29.5625 -26.6 29.5625 -30 29.5625 C-30 18.6725 -30 7.7825 -30 -3.4375 C-27.36 -3.4375 -24.72 -3.4375 -22 -3.4375 C-21.34 -2.7775 -20.68 -2.1175 -20 -1.4375 C-19.01 -2.0975 -18.02 -2.7575 -17 -3.4375 C-10.97572108 -5.56371609 -4.80883451 -3.90717804 0 0 Z " fill="#F9C412" transform="translate(207,65.4375)"/>
<path d="M0 0 C6.6 0 13.2 0 20 0 C20 0.66 20 1.32 20 2 C20.66 2 21.32 2 22 2 C22 3.65 22 5.3 22 7 C18.11498265 8.94250868 13.25705445 8.65349557 9 9 C8.67 12.96 8.34 16.92 8 21 C9.98 21 11.96 21 14 21 C14 21.33 14 21.66 14 22 C11.69 22.66 9.38 23.32 7 24 C6.67 25.65 6.34 27.3 6 29 C6.66 29 7.32 29 8 29 C7.67 33.29 7.34 37.58 7 42 C4.36 42 1.72 42 -1 42 C-1.02467467 36.34000977 -1.04284788 30.68005068 -1.05493164 25.02001953 C-1.05996787 23.09358169 -1.06679712 21.16714769 -1.07543945 19.24072266 C-1.08753608 16.47557632 -1.09323533 13.71048042 -1.09765625 10.9453125 C-1.10281754 10.0806839 -1.10797882 9.2160553 -1.11329651 8.32522583 C-1.11387171 2.22774341 -1.11387171 2.22774341 0 0 Z " fill="#FBC40B" transform="translate(102,53)"/>
<path d="M0 0 C0.33 0.66 0.66 1.32 1 2 C1.99 1.67 2.98 1.34 4 1 C4 1.66 4 2.32 4 3 C5.32 3 6.64 3 8 3 C8 9.93 8 16.86 8 24 C5.69 23.34 3.38 22.68 1 22 C1 21.34 1 20.68 1 20 C0.01 19.67 -0.98 19.34 -2 19 C-1.690625 18.401875 -1.38125 17.80375 -1.0625 17.1875 C0.10209704 14.91043228 0.10209704 14.91043228 1 12 C-1.29109597 11.91924335 -3.58299267 11.86092269 -5.875 11.8125 C-7.15117187 11.77769531 -8.42734375 11.74289063 -9.7421875 11.70703125 C-10.81726563 11.80371094 -11.89234375 11.90039062 -13 12 C-13.99 13.485 -13.99 13.485 -15 15 C-16.32 15 -17.64 15 -19 15 C-19.33 16.32 -19.66 17.64 -20 19 C-20.66 19 -21.32 19 -22 19 C-22.08121924 17.39667209 -22.13929134 15.79215974 -22.1875 14.1875 C-22.22230469 13.29417969 -22.25710937 12.40085937 -22.29296875 11.48046875 C-22 9 -22 9 -20.625 7.21875 C-18.77212473 5.82909355 -17.26684656 5.39083561 -15 5 C-15 5.66 -15 6.32 -15 7 C-10.38 6.67 -5.76 6.34 -1 6 C-0.67 4.02 -0.34 2.04 0 0 Z " fill="#FBC40B" transform="translate(163,70)"/>
<path d="M0 0 C8.44430279 0.51755404 16.68086307 1.4560881 25 3 C25.495 4.485 25.495 4.485 26 6 C21.71 7.65 17.42 9.3 13 11 C13.64758211 24.52879287 13.64758211 24.52879287 15 38 C13.35 38 11.7 38 10 38 C10.01160156 37.46375 10.02320313 36.9275 10.03515625 36.375 C10.12903278 28.22115285 9.56479059 20.12895027 9 12 C8.18595703 12.32484375 8.18595703 12.32484375 7.35546875 12.65625 C6.64003906 12.9346875 5.92460937 13.213125 5.1875 13.5 C4.47980469 13.7784375 3.77210938 14.056875 3.04296875 14.34375 C1 15 1 15 -2 15 C-1.67 19.29 -1.34 23.58 -1 28 C-6.28 27.67 -11.56 27.34 -17 27 C-17 26.67 -17 26.34 -17 26 C-12.05 26 -7.1 26 -2 26 C-2.433125 24.741875 -2.86625 23.48375 -3.3125 22.1875 C-3.67794922 21.12595703 -3.67794922 21.12595703 -4.05078125 20.04296875 C-5.06724258 17.85527627 -6.20820594 16.59103282 -8 15 C-6 13 -6 13 -3.4375 12.5 C-2.633125 12.335 -1.82875 12.17 -1 12 C-0.67 11.34 -0.34 10.68 0 10 C0 10.66 0 11.32 0 12 C3.63 11.67 7.26 11.34 11 11 C11 8.03 11 5.06 11 2 C8.834375 2.061875 8.834375 2.061875 6.625 2.125 C4.1640625 2.1953125 4.1640625 2.1953125 2 2 C1.34 1.34 0.68 0.68 0 0 Z " fill="#F4C728" transform="translate(145,21)"/>
<path d="M0 0 C4.16625 -0.0825 8.3325 -0.165 12.625 -0.25 C13.92775879 -0.28641602 15.23051758 -0.32283203 16.57275391 -0.36035156 C27.19129633 -0.46227905 27.19129633 -0.46227905 32 4 C35.88628217 8.42232109 36.29502759 12.19779075 36 18 C35 21.4375 35 21.4375 34 24 C33.1276588 21.00519083 32.89170234 18.36424089 32.9375 15.25 C32.94652344 14.45078125 32.95554688 13.6515625 32.96484375 12.828125 C32.97644531 12.22484375 32.98804688 11.6215625 33 11 C32.01 10.67 31.02 10.34 30 10 C29.979375 11.03125 29.95875 12.0625 29.9375 13.125 C28.87643131 17.51075058 27.7946675 19.22906001 24.3203125 21.9765625 C19.6295147 24.04556759 14.92878728 22.77531485 10 22 C10 18.04 10 14.08 10 10 C10.33 10 10.66 10 11 10 C11 13.63 11 17.26 11 21 C18.16155468 20.71636678 18.16155468 20.71636678 24 17 C23.55296014 12.52116304 23.55296014 12.52116304 21 9 C21.66 8.01 22.32 7.02 23 6 C23.33 5.01 23.66 4.02 24 3 C23.34 3 22.68 3 22 3 C22 2.34 22 1.68 22 1 C15.4 1 8.8 1 2 1 C1.67 14.86 1.34 28.72 1 43 C0.67 43 0.34 43 0 43 C0 28.81 0 14.62 0 0 Z " fill="#F9C61C" transform="translate(100,52)"/>
<path d="M0 0 C0 3 0 6 0 9 C2.31 9 4.62 9 7 9 C3.60326697 10.85276347 0.13095396 11.99049196 -3.5625 13.125 C-4.69816406 13.47820313 -5.83382812 13.83140625 -7.00390625 14.1953125 C-10 15 -10 15 -13 15 C-13.33 11.7 -13.66 8.4 -14 5 C-12.23244474 4.15973604 -10.46082737 3.32801278 -8.6875 2.5 C-7.70136719 2.0359375 -6.71523437 1.571875 -5.69921875 1.09375 C-3 0 -3 0 0 0 Z " fill="#F8C519" transform="translate(93,40)"/>
<path d="M0 0 C0.67611328 0.01417969 1.35222656 0.02835938 2.04882812 0.04296875 C6.94047619 0.1889881 6.94047619 0.1889881 9.3125 1.375 C9.3125 2.035 9.3125 2.695 9.3125 3.375 C8.52875 3.33375 7.745 3.2925 6.9375 3.25 C4.15133881 3.08771266 4.15133881 3.08771266 2.3125 5.375 C-0.3125 5 -0.3125 5 -2.6875 4.375 C-3.0175 6.355 -3.3475 8.335 -3.6875 10.375 C-6.9875 10.375 -10.2875 10.375 -13.6875 10.375 C-13.3982948 7.00093935 -12.72635323 5.42477612 -10.6171875 2.72265625 C-6.84703931 -0.29848916 -4.76932004 -0.17750652 0 0 Z " fill="#FAC40A" transform="translate(154.6875,62.625)"/>
<path d="M0 0 C4.16625 -0.0825 8.3325 -0.165 12.625 -0.25 C13.92775879 -0.28641602 15.23051758 -0.32283203 16.57275391 -0.36035156 C27.28882834 -0.46321526 27.28882834 -0.46321526 32 4 C32.495 4.99 32.495 4.99 33 6 C30.69 6 28.38 6 26 6 C25.67 8.31 25.34 10.62 25 13 C23.68 11.68 22.36 10.36 21 9 C21.66 8.01 22.32 7.02 23 6 C23.33 5.01 23.66 4.02 24 3 C23.34 3 22.68 3 22 3 C22 2.34 22 1.68 22 1 C15.4 1 8.8 1 2 1 C1.67 14.86 1.34 28.72 1 43 C0.67 43 0.34 43 0 43 C0 28.81 0 14.62 0 0 Z " fill="#F4C52F" transform="translate(100,52)"/>
<path d="M0 0 C2.64 0 5.28 0 8 0 C8.66 0.66 9.32 1.32 10 2 C10.99 1.34 11.98 0.68 13 0 C15.6875 -0.125 15.6875 -0.125 18 0 C18 1.32 18 2.64 18 4 C16.68 4.33 15.36 4.66 14 5 C14 4.34 14 3.68 14 3 C13.01 3.495 13.01 3.495 12 4 C12.33 5.32 12.66 6.64 13 8 C16.465 7.505 16.465 7.505 20 7 C20 7.66 20 8.32 20 9 C19.05125 9.12375 18.1025 9.2475 17.125 9.375 C13.91332809 9.71687177 13.91332809 9.71687177 12 12 C11.30251417 13.31747324 10.63040043 14.64914193 10 16 C10.061875 14.88625 10.12375 13.7725 10.1875 12.625 C10.125625 11.42875 10.06375 10.2325 10 9 C9.01 8.34 8.02 7.68 7 7 C7.33 5.68 7.66 4.36 8 3 C7.34 3 6.68 3 6 3 C6 2.34 6 1.68 6 1 C4.35 1 2.7 1 1 1 C1 11.56 1 22.12 1 33 C0.67 33 0.34 33 0 33 C0 22.11 0 11.22 0 0 Z " fill="#EFC436" transform="translate(177,62)"/>
<path d="M0 0 C8.44430279 0.51755404 16.68086307 1.4560881 25 3 C25.33 3.99 25.66 4.98 26 6 C23.8765984 6.83739781 21.7512272 7.66980283 19.625 8.5 C18.44164062 8.9640625 17.25828125 9.428125 16.0390625 9.90625 C13 11 13 11 11 11 C11 8.03 11 5.06 11 2 C8.834375 2.061875 8.834375 2.061875 6.625 2.125 C4.1640625 2.1953125 4.1640625 2.1953125 2 2 C1.34 1.34 0.68 0.68 0 0 Z " fill="#F5C52A" transform="translate(145,21)"/>
<path d="M0 0 C3.3 0 6.6 0 10 0 C9.49202991 4.3177458 8.80317221 8.03302114 7 12 C6.67 11.01 6.34 10.02 6 9 C4.68 9 3.36 9 2 9 C1.67 8.34 1.34 7.68 1 7 C0.01 6.67 -0.98 6.34 -2 6 C-1.34 4.02 -0.68 2.04 0 0 Z " fill="#F5C323" transform="translate(237,62)"/>
<path d="M0 0 C-0.66 2.31 -1.32 4.62 -2 7 C-0.02 7 1.96 7 4 7 C4 7.66 4 8.32 4 9 C-1.94 8.34 -7.88 7.68 -14 7 C-14 5.68 -14 4.36 -14 3 C-12.04486839 2.303447 -10.08577524 1.61800435 -8.125 0.9375 C-7.03445312 0.55464844 -5.94390625 0.17179687 -4.8203125 -0.22265625 C-2 -1 -2 -1 0 0 Z " fill="#F7C51F" transform="translate(64,32)"/>
<path d="M0 0 C0.33 0 0.66 0 1 0 C2 9 3 18 4 27 C2.35 27 0.7 27 -1 27 C-1.02922646 23.62501842 -1.04687468 20.25006979 -1.0625 16.875 C-1.07087891 15.92367187 -1.07925781 14.97234375 -1.08789062 13.9921875 C-1.10449608 9.20981513 -1.00537055 4.70228431 0 0 Z " fill="#EBC74C" transform="translate(156,32)"/>
<path d="M0 0 C0.33 0 0.66 0 1 0 C1 2.97 1 5.94 1 9 C1.66 9 2.32 9 3 9 C3.33 7.68 3.66 6.36 4 5 C4.61875 4.896875 5.2375 4.79375 5.875 4.6875 C8.36526484 4.12474627 8.36526484 4.12474627 10 1 C12.8203125 0.70703125 12.8203125 0.70703125 16.125 0.8125 C17.76855469 0.85310547 17.76855469 0.85310547 19.4453125 0.89453125 C20.28835937 0.92933594 21.13140625 0.96414062 22 1 C22 1.33 22 1.66 22 2 C16.06 2.495 16.06 2.495 10 3 C10.33 4.32 10.66 5.64 11 7 C13.31 7.33 15.62 7.66 18 8 C18 8.33 18 8.66 18 9 C17.33613281 8.97679688 16.67226562 8.95359375 15.98828125 8.9296875 C9.24107447 8.70021822 9.24107447 8.70021822 3 11 C2.67 11.66 2.34 12.32 2 13 C-0.53752812 10.35674154 -0.99195908 9.11659328 -1.25 5.375 C-1 2 -1 2 0 0 Z " fill="#F6C529" transform="translate(140,80)"/>
<path d="M0 0 C1.32 0 2.64 0 4 0 C4 3.3 4 6.6 4 10 C2.02 10.33 0.04 10.66 -2 11 C-1.67 12.65 -1.34 14.3 -1 16 C-2.32 15.67 -3.64 15.34 -5 15 C-5 14.34 -5 13.68 -5 13 C-5.66 12.67 -6.32 12.34 -7 12 C-6.21625 11.13375 -5.4325 10.2675 -4.625 9.375 C-2.16613272 6.44943553 -0.97549896 3.72463238 0 0 Z " fill="#FCC406" transform="translate(130,62)"/>
<path d="M0 0 C0.66 0 1.32 0 2 0 C2 0.66 2 1.32 2 2 C5.465 1.505 5.465 1.505 9 1 C9 1.66 9 2.32 9 3 C9.66 3 10.32 3 11 3 C11 3.66 11 4.32 11 5 C10.34 5 9.68 5 9 5 C9.37253906 5.62648438 9.74507812 6.25296875 10.12890625 6.8984375 C10.60199219 7.71570313 11.07507813 8.53296875 11.5625 9.375 C12.27599609 10.59316406 12.27599609 10.59316406 13.00390625 11.8359375 C13.49697266 12.90714844 13.49697266 12.90714844 14 14 C13.67 14.66 13.34 15.32 13 16 C11.82786955 14.21190303 10.66244474 12.41940875 9.5 10.625 C8.8503125 9.62726563 8.200625 8.62953125 7.53125 7.6015625 C6 5 6 5 6 3 C4.02 3 2.04 3 0 3 C0 7.29 0 11.58 0 16 C-0.66 16 -1.32 16 -2 16 C-2.05449838 14.27119018 -2.09301688 12.54187288 -2.125 10.8125 C-2.14820312 9.84957031 -2.17140625 8.88664062 -2.1953125 7.89453125 C-1.9913544 4.87187222 -1.26874632 2.73230015 0 0 Z " fill="#F5C62D" transform="translate(111,79)"/>
<path d="M0 0 C1.65 0 3.3 0 5 0 C3.98733788 2.02532424 2.97450448 4.04949131 1.9375 6.0625 C0.88388051 8.13410175 0.88388051 8.13410175 0 11 C-1.32 11 -2.64 11 -4 11 C-4 8.36 -4 5.72 -4 3 C-3.01 3 -2.02 3 -1 3 C-0.67 2.01 -0.34 1.02 0 0 Z " fill="#FBC40C" transform="translate(85,42)"/>
<path d="M0 0 C4.29 0.66 8.58 1.32 13 2 C12.67 2.66 12.34 3.32 12 4 C10.00045254 4.04254356 7.99958364 4.04080783 6 4 C5.67 3.67 5.34 3.34 5 3 C3.74896484 3.45052734 3.74896484 3.45052734 2.47265625 3.91015625 C-4.59167633 6.29730185 -9.66249654 7.49237359 -17 6 C-17 5.67 -17 5.34 -17 5 C-13.37 5 -9.74 5 -6 5 C-6 4.34 -6 3.68 -6 3 C-5.195625 2.87625 -4.39125 2.7525 -3.5625 2.625 C-2.716875 2.41875 -1.87125 2.2125 -1 2 C-0.67 1.34 -0.34 0.68 0 0 Z " fill="#F5C62D" transform="translate(88,36)"/>
<path d="M0 0 C2.87977887 1.43988944 3.54708125 3.50134238 5.0625 6.3125 C5.58972656 7.27800781 6.11695313 8.24351563 6.66015625 9.23828125 C7.77926558 11.54501681 8.51890769 13.49950786 9 16 C6.69 16 4.38 16 2 16 C2.66 13.36 3.32 10.72 4 8 C3.34 8 2.68 8 2 8 C-0.1519437 4.77208445 -0.20086443 3.71599191 0 0 Z " fill="#F6C419" transform="translate(127,79)"/>
<path d="M0 0 C0.33 0.99 0.66 1.98 1 3 C0.67 3.66 0.34 4.32 0 5 C1.32 5.33 2.64 5.66 4 6 C3.67 6.66 3.34 7.32 3 8 C1.35 8 -0.3 8 -2 8 C-2.6875 6.25 -2.6875 6.25 -3 4 C-1.5625 1.75 -1.5625 1.75 0 0 Z M-11 3 C-8.78263366 4.10868317 -6.96382007 5.49440461 -5 7 C-7.66666667 8.33333333 -10.33333333 9.66666667 -13 11 C-12.125 5.25 -12.125 5.25 -11 3 Z M-6 4 C-5.01 4.33 -4.02 4.66 -3 5 C-3.99 5 -4.98 5 -6 5 C-6 4.67 -6 4.34 -6 4 Z " fill="#343637" transform="translate(323,62)"/>
<path d="M0 0 C0.66 0 1.32 0 2 0 C3.32 2.97 4.64 5.94 6 9 C5.01 9 4.02 9 3 9 C3 8.34 3 7.68 3 7 C0.69 7.66 -1.62 8.32 -4 9 C-2.94124926 5.59687262 -1.99097846 2.98646769 0 0 Z M0 3 C0 3.66 0 4.32 0 5 C0.66 4.67 1.32 4.34 2 4 C1.34 3.67 0.68 3.34 0 3 Z " fill="#404345" transform="translate(372,89)"/>
<path d="M0 0 C0.66 0.33 1.32 0.66 2 1 C1.34 2.98 0.68 4.96 0 7 C-1.32 7 -2.64 7 -4 7 C-4 7.66 -4 8.32 -4 9 C-1.36 9 1.28 9 4 9 C4 9.33 4 9.66 4 10 C0.7 10 -2.6 10 -6 10 C-5.58578031 5.16743695 -3.53586014 3.17320782 0 0 Z " fill="#F5C528" transform="translate(147,63)"/>
<path d="M0 0 C1.98 0 3.96 0 6 0 C6 0.66 6 1.32 6 2 C4.68 2.33 3.36 2.66 2 3 C3.32 3.66 4.64 4.32 6 5 C6 6.32 6 7.64 6 9 C2.98968256 9.93423645 2.13349732 10.04449911 -1 9 C-1 8.34 -1 7.68 -1 7 C1.475 7.495 1.475 7.495 4 8 C4 7.34 4 6.68 4 6 C1.525 5.01 1.525 5.01 -1 4 C-0.67 2.68 -0.34 1.36 0 0 Z " fill="#3B3E41" transform="translate(314,89)"/>
<path d="M0 0 C2.125 0.375 2.125 0.375 4 1 C4 1.99 4 2.98 4 4 C3.34 3.67 2.68 3.34 2 3 C2 3.66 2 4.32 2 5 C0.72125 5.144375 -0.5575 5.28875 -1.875 5.4375 C-4.25692894 5.70642746 -5.84452691 5.92226346 -8 7 C-7.67 5.35 -7.34 3.7 -7 2 C-6.21625 2.04125 -5.4325 2.0825 -4.625 2.125 C-1.83883881 2.28728734 -1.83883881 2.28728734 0 0 Z " fill="#F8C41D" transform="translate(159,65)"/>
<path d="M0 0 C1.2065625 0.0309375 1.2065625 0.0309375 2.4375 0.0625 C2.7675 1.3825 3.0975 2.7025 3.4375 4.0625 C2.4475 4.5575 2.4475 4.5575 1.4375 5.0625 C2.0975 5.0625 2.7575 5.0625 3.4375 5.0625 C3.4375 5.7225 3.4375 6.3825 3.4375 7.0625 C1.625 7.6875 1.625 7.6875 -0.5625 8.0625 C-1.5525 7.4025 -2.5425 6.7425 -3.5625 6.0625 C-3.8125 3.5 -3.8125 3.5 -3.5625 1.0625 C-2.5625 0.0625 -2.5625 0.0625 0 0 Z " fill="#363C3D" transform="translate(351.5625,90.9375)"/>
<path d="M0 0 C2.625 0.375 2.625 0.375 5 1 C5.33 1.99 5.66 2.98 6 4 C5.01 4.33 4.02 4.66 3 5 C3.66 5 4.32 5 5 5 C5 5.66 5 6.32 5 7 C2 8 2 8 -1 7 C-1.625 4.625 -1.625 4.625 -2 2 C-1.34 1.34 -0.68 0.68 0 0 Z " fill="#363738" transform="translate(407,91)"/>
<path d="M0 0 C1.2065625 0.0309375 1.2065625 0.0309375 2.4375 0.0625 C3.5 1.875 3.5 1.875 4.4375 4.0625 C4.1075 5.0525 3.7775 6.0425 3.4375 7.0625 C1.5625 7.875 1.5625 7.875 -0.5625 8.0625 C-1.5525 7.4025 -2.5425 6.7425 -3.5625 6.0625 C-3.8125 3.5 -3.8125 3.5 -3.5625 1.0625 C-2.5625 0.0625 -2.5625 0.0625 0 0 Z M-1.5625 2.0625 C-1.2325 3.3825 -0.9025 4.7025 -0.5625 6.0625 C0.4275 5.0725 1.4175 4.0825 2.4375 3.0625 C1.1175 2.7325 -0.2025 2.4025 -1.5625 2.0625 Z " fill="#3D3F40" transform="translate(326.5625,90.9375)"/>
<path d="M0 0 C2.625 0.375 2.625 0.375 5 1 C5.33 1.99 5.66 2.98 6 4 C5.01 4.33 4.02 4.66 3 5 C3.66 5 4.32 5 5 5 C5 5.66 5 6.32 5 7 C2 8 2 8 -1 7 C-1.625 4.625 -1.625 4.625 -2 2 C-1.34 1.34 -0.68 0.68 0 0 Z " fill="#393D3D" transform="translate(272,91)"/>
<path d="M0 0 C2.625 0.375 2.625 0.375 5 1 C5.33 1.99 5.66 2.98 6 4 C5.01 4.33 4.02 4.66 3 5 C3.66 5 4.32 5 5 5 C5 5.66 5 6.32 5 7 C2 8 2 8 -1 7 C-1.625 4.625 -1.625 4.625 -2 2 C-1.34 1.34 -0.68 0.68 0 0 Z " fill="#383C3E" transform="translate(426,91)"/>
<path d="M0 0 C1.66611905 -0.042721 3.33382885 -0.04063832 5 0 C6 1 6 1 6.0625 4.0625 C6.041875 5.031875 6.02125 6.00125 6 7 C4.1875 7.625 4.1875 7.625 2 8 C1.01 7.34 0.02 6.68 -1 6 C-0.67 4.02 -0.34 2.04 0 0 Z M2 4 C1.67 4.66 1.34 5.32 1 6 C1.99 5.67 2.98 5.34 4 5 C3.34 4.67 2.68 4.34 2 4 Z " fill="#363B3B" transform="translate(281,91)"/>
<path d="M0 0 C1.99954746 -0.04254356 4.00041636 -0.04080783 6 0 C7 1 7 1 7.0625 4.0625 C7.041875 5.031875 7.02125 6.00125 7 7 C6.34 7 5.68 7 5 7 C5 5.35 5 3.7 5 2 C4.01 2 3.02 2 2 2 C2 3.65 2 5.3 2 7 C1.34 7 0.68 7 0 7 C0 4.69 0 2.38 0 0 Z " fill="#404343" transform="translate(298,91)"/>
<path d="M0 0 C5.9782058 1.11458074 8.94612259 2.18602057 13 7 C12.67 7.66 12.34 8.32 12 9 C11.67 8.01 11.34 7.02 11 6 C8.03 5.505 8.03 5.505 5 5 C4.67 5.66 4.34 6.32 4 7 C4 5.35 4 3.7 4 2 C2.68 2 1.36 2 0 2 C0 1.34 0 0.68 0 0 Z " fill="#F4C529" transform="translate(196,61)"/>
<path d="M0 0 C0.33 0.99 0.66 1.98 1 3 C2.65 3 4.3 3 6 3 C6.33 5.31 6.66 7.62 7 10 C6.34 10 5.68 10 5 10 C4.67 8.68 4.34 7.36 4 6 C3.34 6 2.68 6 2 6 C1.34 7.32 0.68 8.64 0 10 C0 6.7 0 3.4 0 0 Z " fill="#3F4342" transform="translate(390,88)"/>
<path d="M0 0 C-0.33 0.99 -0.66 1.98 -1 3 C-1.99 2.67 -2.98 2.34 -4 2 C-4 4.64 -4 7.28 -4 10 C-2.35 10 -0.7 10 1 10 C-2 12 -2 12 -5 12 C-5.33 8.7 -5.66 5.4 -6 2 C-2 0 -2 0 0 0 Z " fill="#EEC93A" transform="translate(85,43)"/>
<path d="M0 0 C1.2065625 0.0309375 1.2065625 0.0309375 2.4375 0.0625 C2.1075 1.0525 1.7775 2.0425 1.4375 3.0625 C0.4475 2.7325 -0.5425 2.4025 -1.5625 2.0625 C-0.5725 3.5475 -0.5725 3.5475 0.4375 5.0625 C1.0975 5.0625 1.7575 5.0625 2.4375 5.0625 C2.4375 5.7225 2.4375 6.3825 2.4375 7.0625 C1.4475 7.3925 0.4575 7.7225 -0.5625 8.0625 C-1.5525 7.4025 -2.5425 6.7425 -3.5625 6.0625 C-3.8125 3.5 -3.8125 3.5 -3.5625 1.0625 C-2.5625 0.0625 -2.5625 0.0625 0 0 Z " fill="#454647" transform="translate(383.5625,90.9375)"/>
<path d="M0 0 C0.66 0 1.32 0 2 0 C2.66 0.66 3.32 1.32 4 2 C4.33 1.34 4.66 0.68 5 0 C5.66 0 6.32 0 7 0 C6.125 4.75 6.125 4.75 5 7 C4.01 7 3.02 7 2 7 C0.5393715 4.35261084 0 3.10551666 0 0 Z " fill="#3E4142" transform="translate(415,91)"/>
<path d="M0 0 C0.66 0 1.32 0 2 0 C2.33 2.97 2.66 5.94 3 9 C1.68 9 0.36 9 -1 9 C-0.67 6.03 -0.34 3.06 0 0 Z " fill="#F3C72D" transform="translate(157,50)"/>
<path d="M0 0 C0 1.65 0 3.3 0 5 C-1.98 5.99 -1.98 5.99 -4 7 C-4.33 5.02 -4.66 3.04 -5 1 C-3 0 -3 0 0 0 Z " fill="#F6C41B" transform="translate(133,72)"/>
<path d="M0 0 C2.97 0 5.94 0 9 0 C8.67 0.99 8.34 1.98 8 3 C2.25 4.125 2.25 4.125 0 3 C0 2.01 0 1.02 0 0 Z " fill="#FAC509" transform="translate(158,25)"/>
<path d="M0 0 C3 1 3 1 4 3 C4.66 2.01 5.32 1.02 6 0 C6.66 0 7.32 0 8 0 C7.34 1.98 6.68 3.96 6 6 C4.68 6 3.36 6 2 6 C1.34 4.02 0.68 2.04 0 0 Z " fill="#414446" transform="translate(338,91)"/>
<path d="M0 0 C3.63 0.33 7.26 0.66 11 1 C11.33 1.99 11.66 2.98 12 4 C10.35 4.33 8.7 4.66 7 5 C7.33 4.01 7.66 3.02 8 2 C7.05125 2.04125 6.1025 2.0825 5.125 2.125 C2 2 2 2 0 0 Z " fill="#F0C43A" transform="translate(159,23)"/>
<path d="M0 0 C0.66 0 1.32 0 2 0 C2 2.64 2 5.28 2 8 C3.65 8 5.3 8 7 8 C7 8.33 7 8.66 7 9 C4.69 9 2.38 9 0 9 C0 6.03 0 3.06 0 0 Z " fill="#323937" transform="translate(261,89)"/>
<path d="M0 0 C2.64 0 5.28 0 8 0 C5.57418129 2.42581871 3.92566131 2.96355664 0.51953125 3.09765625 C-0.37378906 3.08605469 -1.26710937 3.07445313 -2.1875 3.0625 C-3.53908203 3.04896484 -3.53908203 3.04896484 -4.91796875 3.03515625 C-5.60503906 3.02355469 -6.29210937 3.01195313 -7 3 C-7 2.67 -7 2.34 -7 2 C-3.535 1.505 -3.535 1.505 0 1 C0 0.67 0 0.34 0 0 Z " fill="#F1C42E" transform="translate(154,93)"/>
<path d="M0 0 C0.99 0 1.98 0 3 0 C2.79375 0.721875 2.5875 1.44375 2.375 2.1875 C1.94047789 5.44641585 2.58319331 7.08304504 4 10 C2.68 9.34 1.36 8.68 0 8 C0 5.36 0 2.72 0 0 Z " fill="#F4C532" transform="translate(239,76)"/>
<path d="M0 0 C2.53833449 1.26916725 2.89400901 2.41624809 4.125 4.9375 C4.47820312 5.64777344 4.83140625 6.35804687 5.1953125 7.08984375 C6 9 6 9 6 11 C5.34 11 4.68 11 4 11 C4 10.01 4 9.02 4 8 C3.34 8 2.68 8 2 8 C-0.1519437 4.77208445 -0.20086443 3.71599191 0 0 Z " fill="#F2C629" transform="translate(127,79)"/>
<path d="M0 0 C0 0.66 0 1.32 0 2 C-0.94875 2.12375 -1.8975 2.2475 -2.875 2.375 C-6.08667191 2.71687177 -6.08667191 2.71687177 -8 5 C-8.69748583 6.31747324 -9.36959957 7.64914193 -10 9 C-10 6.69 -10 4.38 -10 2 C-6.49223216 0.39644899 -3.85645121 -0.22036864 0 0 Z " fill="#EDC733" transform="translate(197,69)"/>
<path d="M0 0 C2.6855594 2.6855594 3.06049974 5.37621328 4 9 C2.35 9.66 0.7 10.32 -1 11 C-0.835 9.9275 -0.67 8.855 -0.5 7.75 C0.08810915 3.96971248 0.08810915 3.96971248 0 0 Z " fill="#313335" transform="translate(339,58)"/>
<path d="M0 0 C0.66 0 1.32 0 2 0 C2.33 0.66 2.66 1.32 3 2 C3.825 2.268125 4.65 2.53625 5.5 2.8125 C6.7375 3.4003125 6.7375 3.4003125 8 4 C8.8125 6.625 8.8125 6.625 9 9 C8.5875 8.525625 8.175 8.05125 7.75 7.5625 C6.12407989 5.83724908 6.12407989 5.83724908 3.9375 5.625 C3.298125 5.41875 2.65875 5.2125 2 5 C0.75 2.4375 0.75 2.4375 0 0 Z " fill="#F4C724" transform="translate(224,78)"/>
<path d="M0 0 C0.33 1.32 0.66 2.64 1 4 C0.01 4.495 0.01 4.495 -1 5 C-1.65213292 7.02463255 -1.65213292 7.02463255 -2 9 C-2.66 9 -3.32 9 -4 9 C-4 8.01 -4 7.02 -4 6 C-5.32 5.67 -6.64 5.34 -8 5 C-7.05125 4.731875 -6.1025 4.46375 -5.125 4.1875 C-1.74732727 3.25013412 -1.74732727 3.25013412 0 0 Z " fill="#F6C329" transform="translate(234,69)"/>
<path d="M0 0 C1.65 0 3.3 0 5 0 C4.01 0.33 3.02 0.66 2 1 C2 4.3 2 7.6 2 11 C0.35122815 7.70245629 -0.53158436 5.55995883 -1 2 C-0.67 1.34 -0.34 0.68 0 0 Z " fill="#313233" transform="translate(361,49)"/>
<path d="M0 0 C2.33944736 0.28730055 4.6739143 0.61936779 7 1 C7.33 1.99 7.66 2.98 8 4 C4.625 4.1875 4.625 4.1875 1 4 C0.34 3.01 -0.32 2.02 -1 1 C-0.67 0.67 -0.34 0.34 0 0 Z " fill="#F7C61B" transform="translate(163,91)"/>
<path d="M0 0 C0.66 0 1.32 0 2 0 C2 3.3 2 6.6 2 10 C1.34 10 0.68 10 0 10 C0 6.7 0 3.4 0 0 Z " fill="#414445" transform="translate(334,88)"/>
<path d="M0 0 C2.16874252 0.50603992 3.99967627 0.99983813 6 2 C6 2.66 6 3.32 6 4 C4.02 4 2.04 4 0 4 C0 2.68 0 1.36 0 0 Z " fill="#EBCA35" transform="translate(50,35)"/>
<path d="M0 0 C2.475 0.495 2.475 0.495 5 1 C5.33 1.99 5.66 2.98 6 4 C4.02 4 2.04 4 0 4 C0 2.68 0 1.36 0 0 Z " fill="#3F4042" transform="translate(407,91)"/>
<path d="M0 0 C2 3 2 3 2 5 C-1.63 5 -5.26 5 -9 5 C-9.33 4.34 -9.66 3.68 -10 3 C-7.03 3 -4.06 3 -1 3 C-0.67 2.01 -0.34 1.02 0 0 Z " fill="#2F3435" transform="translate(433,51)"/>
<path d="M0 0 C1.65 0.33 3.3 0.66 5 1 C5.33 1.99 5.66 2.98 6 4 C5.01 4 4.02 4 3 4 C3 3.34 3 2.68 3 2 C1.35 2.33 -0.3 2.66 -2 3 C-1.34 2.01 -0.68 1.02 0 0 Z " fill="#313536" transform="translate(272,91)"/>
<path d="M0 0 C3.3 0.33 6.6 0.66 10 1 C10 1.33 10 1.66 10 2 C6.7 2.33 3.4 2.66 0 3 C0 2.01 0 1.02 0 0 Z " fill="#FCC91D" transform="translate(110,59)"/>
<path d="M0 0 C0.66 0 1.32 0 2 0 C2 2.31 2 4.62 2 7 C1.34 7 0.68 7 0 7 C0 4.69 0 2.38 0 0 Z " fill="#444647" transform="translate(400,91)"/>
<path d="M0 0 C1.32 0 2.64 0 4 0 C4 0.66 4 1.32 4 2 C3.01 2.495 3.01 2.495 2 3 C0.86649466 5.01669827 0.86649466 5.01669827 0 7 C0 4.69 0 2.38 0 0 Z " fill="#3D3E3E" transform="translate(291,91)"/>
<path d="M0 0 C0.66 0 1.32 0 2 0 C2 0.66 2 1.32 2 2 C1.34 2 0.68 2 0 2 C0 1.34 0 0.68 0 0 Z " fill="#262626" transform="translate(434,96)"/>
<path d="M0 0 C0.66 0 1.32 0 2 0 C2 0.66 2 1.32 2 2 C1.34 2 0.68 2 0 2 C0 1.34 0 0.68 0 0 Z " fill="#333C3C" transform="translate(358,96)"/>
<path d="M0 0 C0.66 0 1.32 0 2 0 C2 0.66 2 1.32 2 2 C1.34 2 0.68 2 0 2 C0 1.34 0 0.68 0 0 Z " fill="#3E3E3F" transform="translate(400,88)"/>
<path d="M0 0 C0.33 0.66 0.66 1.32 1 2 C0.34 1.67 -0.32 1.34 -1 1 C-0.67 0.67 -0.34 0.34 0 0 Z " fill="#353538" transform="translate(309,96)"/>
</svg>
