<?xml version="1.0" standalone="no"?>
<!DOCTYPE svg PUBLIC "-//W3C//DTD SVG 20010904//EN"
 "http://www.w3.org/TR/2001/REC-SVG-20010904/DTD/svg10.dtd">
<svg version="1.0" xmlns="http://www.w3.org/2000/svg"
 width="500.000000pt" height="112.000000pt" viewBox="0 0 500.000000 112.000000"
 preserveAspectRatio="xMidYMid meet">

<g transform="translate(0.000000,112.000000) scale(0.100000,-0.100000)"
fill="#000000" stroke="none">
<path d="M4082 759 c-60 -11 -108 -44 -140 -93 -24 -36 -27 -51 -27 -123 0
-74 3 -85 30 -125 42 -60 109 -92 191 -91 116 1 199 74 211 186 l6 57 -122 0
-121 0 0 -35 0 -35 70 0 c39 0 70 -4 70 -10 0 -5 -13 -24 -28 -41 -39 -44
-111 -52 -162 -17 -93 63 -65 223 43 243 47 9 78 1 115 -30 22 -19 41 -25 76
-25 51 0 52 0 32 38 -40 77 -145 121 -244 101z"/>
<path d="M2550 545 l0 -215 50 0 49 0 3 127 3 126 48 -72 c46 -70 49 -72 85
-69 33 3 41 10 82 70 25 37 48 67 53 68 4 0 7 -56 7 -125 l0 -125 45 0 45 0 0
215 0 215 -39 0 c-39 0 -41 -1 -111 -105 -40 -58 -75 -107 -80 -110 -4 -3 -41
45 -81 105 l-74 109 -42 1 -43 0 0 -215z"/>
<path d="M3227 753 c-7 -11 -167 -412 -167 -418 0 -3 22 -5 49 -5 48 0 49 1
65 40 l16 40 84 0 84 0 16 -40 c16 -39 17 -40 66 -40 l50 0 -15 38 c-8 20 -46
116 -84 212 l-68 175 -46 3 c-25 2 -47 -1 -50 -5z m99 -248 c6 -25 5 -25 -54
-25 l-60 0 18 48 c10 26 24 61 30 77 l12 30 24 -53 c13 -28 26 -63 30 -77z"/>
<path d="M3530 545 l0 -215 45 0 44 0 3 68 3 67 30 0 c26 0 35 -8 70 -67 l40
-68 53 0 54 0 -33 58 c-17 31 -37 64 -42 74 -9 13 -4 22 21 43 41 34 57 90 42
146 -23 84 -76 109 -232 109 l-98 0 0 -215z m220 110 c25 -23 26 -67 1 -89
-11 -10 -43 -20 -75 -23 l-56 -6 0 73 0 72 55 -4 c34 -3 62 -12 75 -23z"/>
<path d="M2578 273 c7 -3 16 -2 19 1 4 3 -2 6 -13 5 -11 0 -14 -3 -6 -6z"/>
<path d="M3820 277 c0 -3 -7 -21 -16 -42 -8 -20 -10 -34 -5 -30 6 3 11 12 11
20 0 7 7 20 15 29 9 9 11 17 5 21 -5 3 -10 4 -10 2z"/>
<path d="M2545 259 c-4 -6 -5 -12 -2 -15 2 -3 7 2 10 11 7 17 1 20 -8 4z"/>
<path d="M2880 210 c0 -22 2 -40 4 -40 2 0 6 18 8 40 2 22 0 40 -4 40 -5 0 -8
-18 -8 -40z"/>
<path d="M2977 243 c-17 -16 -5 -29 23 -25 17 2 30 8 30 12 0 4 -12 5 -26 2
-19 -3 -25 -1 -20 7 8 12 3 15 -7 4z"/>
<path d="M3127 243 c-17 -16 -5 -29 23 -25 17 2 30 8 30 12 0 4 -12 5 -26 2
-19 -3 -25 -1 -20 7 8 12 3 15 -7 4z"/>
<path d="M3504 242 c3 -6 -2 -13 -11 -15 -16 -4 -16 -5 -1 -6 9 0 19 -9 21
-18 3 -12 5 -8 6 9 0 15 -4 30 -11 34 -6 4 -8 3 -4 -4z"/>
<path d="M3550 220 c0 -16 2 -30 4 -30 2 0 6 14 8 30 3 17 1 30 -4 30 -4 0 -8
-13 -8 -30z"/>
<path d="M3840 245 c0 -5 5 -17 10 -25 5 -8 10 -10 10 -5 0 6 -5 17 -10 25 -5
8 -10 11 -10 5z"/>
<path d="M3893 235 c-3 -9 -3 -18 -1 -21 3 -3 8 4 11 16 6 23 -1 27 -10 5z"/>
<path d="M3981 234 c0 -11 3 -14 6 -6 3 7 2 16 -1 19 -3 4 -6 -2 -5 -13z"/>
<path d="M4029 218 c4 -28 6 -29 9 -9 2 13 0 27 -5 32 -6 6 -7 -3 -4 -23z"/>
<path d="M4284 235 c-8 -19 13 -45 35 -44 10 0 7 4 -9 11 l-25 11 30 7 30 8
-28 1 c-16 0 -26 5 -22 11 3 6 4 10 0 10 -3 0 -8 -7 -11 -15z"/>
<path d="M2540 224 c0 -18 27 -36 47 -31 14 4 14 5 -4 6 -12 0 -27 9 -32 19
-6 9 -11 12 -11 6z"/>
<path d="M3393 223 c9 -2 25 -2 35 0 9 3 1 5 -18 5 -19 0 -27 -2 -17 -5z"/>
<path d="M4133 223 c9 -2 25 -2 35 0 9 3 1 5 -18 5 -19 0 -27 -2 -17 -5z"/>
<path d="M2690 211 c0 -9 -9 -12 -25 -9 -13 3 -22 1 -19 -3 7 -13 42 -11 49 2
4 6 4 13 1 16 -3 4 -6 1 -6 -6z"/>
<path d="M2915 200 c-16 -7 -17 -9 -3 -9 9 -1 20 4 23 9 7 11 7 11 -20 0z"/>
<path d="M3388 198 c5 -5 16 -8 23 -6 8 3 3 7 -10 11 -17 4 -21 3 -13 -5z"/>
<path d="M3468 198 c5 -5 16 -8 23 -6 8 3 3 7 -10 11 -17 4 -21 3 -13 -5z"/>
<path d="M4128 198 c5 -5 16 -8 23 -6 8 3 3 7 -10 11 -17 4 -21 3 -13 -5z"/>
<path d="M4220 199 c0 -5 5 -7 10 -4 6 3 10 8 10 11 0 2 -4 4 -10 4 -5 0 -10
-5 -10 -11z"/>
<path d="M2998 193 c7 -3 16 -2 19 1 4 3 -2 6 -13 5 -11 0 -14 -3 -6 -6z"/>
<path d="M3148 193 c7 -3 16 -2 19 1 4 3 -2 6 -13 5 -11 0 -14 -3 -6 -6z"/>
<path d="M3313 193 c9 -2 23 -2 30 0 6 3 -1 5 -18 5 -16 0 -22 -2 -12 -5z"/>
<path d="M3918 193 c7 -3 16 -2 19 1 4 3 -2 6 -13 5 -11 0 -14 -3 -6 -6z"/>
</g>
</svg>
